<svg version="1.2" xmlns="http://www.w3.org/2000/svg" viewBox="0 0 987 987" width="987" height="987">
	<style>
		.s0 { fill: #c80d0d } 
		.s1 { fill: #ffffff } 
	</style>
	<path id="Shape 1" fill-rule="evenodd" class="s0" d="m336.34 918.2c-74.68 74.68-195.41 74.68-270.08 0-74.68-74.68-74.68-195.41 0-270.09 37.17-37.17 85.75-55.84 134.39-56 26.65-1.25 79.84-3.89 112.09-36.06 17.52-17.48 105.58-106.76 105.58-106.76l30.73 30.74q-0.51 0.46-1 0.96c-12.26 12.26-12.26 32.07 0 44.33 12.26 12.26 32.08 12.26 44.33 0q0.5-0.49 0.96-1l31.73 31.73c0 0-89.76 89.91-106.75 107.91-24.65 26.12-26.06 80.16-26.11 111.81q0.3 7.93-0.05 15.86c-0.05 3-0.17 5.32-0.42 6.81-3.49 43.64-21.96 86.32-55.4 119.76zm-91.29-182.88c-24.19-24.19-63.31-24.19-87.5 0-24.2 24.2-24.2 63.31 0 87.5 24.19 24.2 63.31 24.2 87.5 0 24.19-24.19 24.19-63.3 0-87.5zm403.19-669.19c74.68-74.68 195.41-74.68 270.09 0 74.68 74.68 74.68 195.4 0 270.08-33.44 33.44-76.12 51.91-119.76 55.4-1.49 0.25-3.81 0.37-6.81 0.42q-7.93 0.36-15.86 0.05c-31.65 0.06-85.69 1.47-111.81 26.11-18 16.99-107.92 106.75-107.92 106.75l-31.72-31.72q0.51-0.47 1-0.96c12.26-12.26 12.26-32.08 0-44.34-12.26-12.26-32.08-12.26-44.33 0q-0.5 0.5-0.96 1.01l-30.74-30.74c0 0 89.27-88.06 106.75-105.58 32.18-32.25 34.82-85.43 36.06-112.09 0.17-48.64 18.84-97.22 56.01-134.39zm87.21 178.79c24.2 24.19 63.31 24.19 87.5 0 24.2-24.19 24.2-63.31 0-87.5-24.19-24.19-63.3-24.19-87.5 0-24.19 24.19-24.19 63.31 0 87.5z"/>
	<path id="Layer 4" class="s1" d="m501 486l154 341 107-114 179 232-134.37-407.59-121.2 128.63z"/>
	<path id="Layer 4 copy" class="s1" d="m469 481l-154-341-107 114-179-232 134.37 407.59 121.2-128.63z"/>
</svg>