<svg version="1.2" xmlns="http://www.w3.org/2000/svg" viewBox="0 0 987 987" width="987" height="987">
	<style>
		.s0 { fill: #c80d0d } 
		.s1 { opacity: .5;fill: #ffffff } 
	</style>
	<path id="Shape 1" fill-rule="evenodd" class="s0" d="m336.34 918.2c-74.68 74.68-195.41 74.68-270.08 0-74.68-74.68-74.68-195.41 0-270.09 37.17-37.17 85.75-55.84 134.39-56 26.65-1.25 79.84-3.89 112.09-36.06 17.52-17.48 105.58-106.76 105.58-106.76l30.73 30.74q-0.51 0.46-1 0.96c-12.26 12.26-12.26 32.07 0 44.33 12.26 12.26 32.08 12.26 44.33 0q0.5-0.49 0.96-1l31.73 31.73c0 0-89.76 89.91-106.75 107.91-24.65 26.12-26.06 80.16-26.11 111.81q0.3 7.93-0.05 15.86c-0.05 3-0.17 5.32-0.42 6.81-3.49 43.64-21.96 86.32-55.4 119.76zm-91.29-182.88c-24.19-24.19-63.31-24.19-87.5 0-24.2 24.2-24.2 63.31 0 87.5 24.19 24.2 63.31 24.2 87.5 0 24.19-24.19 24.19-63.3 0-87.5zm403.19-669.19c74.68-74.68 195.41-74.68 270.09 0 74.68 74.68 74.68 195.4 0 270.08-33.44 33.44-76.12 51.91-119.76 55.4-1.49 0.25-3.81 0.37-6.81 0.42q-7.93 0.36-15.86 0.05c-31.65 0.06-85.69 1.47-111.81 26.11-18 16.99-107.92 106.75-107.92 106.75l-31.72-31.72q0.51-0.47 1-0.96c12.26-12.26 12.26-32.08 0-44.34-12.26-12.26-32.08-12.26-44.33 0q-0.5 0.5-0.96 1.01l-30.74-30.74c0 0 89.27-88.06 106.75-105.58 32.18-32.25 34.82-85.43 36.06-112.09 0.17-48.64 18.84-97.22 56.01-134.39zm87.21 178.79c24.2 24.19 63.31 24.19 87.5 0 24.2-24.19 24.2-63.31 0-87.5-24.19-24.19-63.3-24.19-87.5 0-24.19 24.19-24.19 63.31 0 87.5z"/>
	<path id="Layer 1" class="s1" d="m163.9 167.44l9.16-9.16c11.72-11.72 30.71-11.72 42.43 0l149.7 149.7c11.72 11.72 11.72 30.71 0 42.43l-9.16 9.16c-11.72 11.72-30.71 11.72-42.43 0l-149.7-149.7c-11.72-11.72-11.72-30.71 0-42.43zm0 0l9.16-9.16c11.72-11.72 30.71-11.72 42.43 0l149.7 149.7c11.72 11.72 11.72 30.71 0 42.43l-9.16 9.16c-11.72 11.72-30.71 11.72-42.43 0l-149.7-149.7c-11.72-11.72-11.72-30.71 0-42.43zm0 0l9.16-9.16c11.72-11.72 30.71-11.72 42.43 0l149.7 149.7c11.72 11.72 11.72 30.71 0 42.43l-9.16 9.16c-11.72 11.72-30.71 11.72-42.43 0l-149.7-149.7c-11.72-11.72-11.72-30.71 0-42.43zm-127.43 198.67l3.35-12.52c4.29-16 20.74-25.5 36.74-21.21l204.5 54.8c16 4.28 25.5 20.73 21.21 36.74l-3.35 12.52c-4.29 16-20.74 25.5-36.74 21.21l-204.5-54.8c-16.01-4.28-25.5-20.73-21.21-36.74zm0 0l3.35-12.52c4.29-16 20.74-25.5 36.74-21.21l204.5 54.8c16 4.28 25.5 20.73 21.21 36.74l-3.35 12.52c-4.29 16-20.74 25.5-36.74 21.21l-204.5-54.8c-16.01-4.28-25.5-20.73-21.21-36.74zm0 0l3.35-12.52c4.29-16 20.74-25.5 36.74-21.21l204.5 54.8c16 4.28 25.5 20.73 21.21 36.74l-3.35 12.52c-4.29 16-20.74 25.5-36.74 21.21l-204.5-54.8c-16.01-4.28-25.5-20.73-21.21-36.74zm400.25-71.03l-12.52 3.35c-16 4.29-32.45-5.21-36.74-21.21l-54.79-204.5c-4.29-16 5.2-32.45 21.21-36.74l12.52-3.36c16-4.29 32.45 5.21 36.74 21.22l54.79 204.49c4.29 16.01-5.2 32.46-21.21 36.75zm0 0l-12.52 3.35c-16 4.29-32.45-5.21-36.74-21.21l-54.79-204.5c-4.29-16 5.2-32.45 21.21-36.74l12.52-3.36c16-4.29 32.45 5.21 36.74 21.22l54.79 204.49c4.29 16.01-5.2 32.46-21.21 36.75zm0 0l-12.52 3.35c-16 4.29-32.45-5.21-36.74-21.21l-54.79-204.5c-4.29-16 5.2-32.45 21.21-36.74l12.52-3.36c16-4.29 32.45 5.21 36.74 21.22l54.79 204.49c4.29 16.01-5.2 32.46-21.21 36.75zm374.48 508.45l-9.16 9.16c-11.72 11.72-30.72 11.72-42.43 0l-149.7-149.7c-11.72-11.72-11.72-30.71 0-42.43l9.16-9.16c11.72-11.72 30.71-11.72 42.43 0l149.7 149.7c11.72 11.72 11.72 30.71 0 42.43zm0 0l-9.16 9.16c-11.72 11.72-30.72 11.72-42.43 0l-149.7-149.7c-11.72-11.72-11.72-30.71 0-42.43l9.16-9.16c11.72-11.72 30.71-11.72 42.43 0l149.7 149.7c11.72 11.72 11.72 30.71 0 42.43zm0 0l-9.16 9.16c-11.72 11.72-30.72 11.72-42.43 0l-149.7-149.7c-11.72-11.72-11.72-30.71 0-42.43l9.16-9.16c11.72-11.72 30.71-11.72 42.43 0l149.7 149.7c11.72 11.72 11.72 30.71 0 42.43zm127.43-198.67l-3.35 12.52c-4.29 16-20.74 25.5-36.74 21.21l-204.5-54.8c-16.01-4.28-25.5-20.73-21.22-36.74l3.36-12.52c4.29-16 20.74-25.5 36.74-21.21l204.5 54.8c16 4.28 25.5 20.73 21.21 36.74zm0 0l-3.35 12.52c-4.29 16-20.74 25.5-36.74 21.21l-204.5-54.8c-16.01-4.28-25.5-20.73-21.22-36.74l3.36-12.52c4.29-16 20.74-25.5 36.74-21.21l204.5 54.8c16 4.28 25.5 20.73 21.21 36.74zm0 0l-3.35 12.52c-4.29 16-20.74 25.5-36.74 21.21l-204.5-54.8c-16.01-4.28-25.5-20.73-21.22-36.74l3.36-12.52c4.29-16 20.74-25.5 36.74-21.21l204.5 54.8c16 4.28 25.5 20.73 21.21 36.74zm-400.25 71.03l12.51-3.35c16.01-4.29 32.46 5.21 36.75 21.21l54.79 204.5c4.29 16-5.21 32.45-21.21 36.74l-12.52 3.36c-16 4.29-32.45-5.21-36.74-21.22l-54.8-204.49c-4.28-16.01 5.21-32.46 21.22-36.75zm0 0l12.51-3.35c16.01-4.29 32.46 5.21 36.75 21.21l54.79 204.5c4.29 16-5.21 32.45-21.21 36.74l-12.52 3.36c-16 4.29-32.45-5.21-36.74-21.22l-54.8-204.49c-4.28-16.01 5.21-32.46 21.22-36.75zm0 0l12.51-3.35c16.01-4.29 32.46 5.21 36.75 21.21l54.79 204.5c4.29 16-5.21 32.45-21.21 36.74l-12.52 3.36c-16 4.29-32.45-5.21-36.74-21.22l-54.8-204.49c-4.28-16.01 5.21-32.46 21.22-36.75z"/>
</svg>